<?xml version="1.0" encoding="utf-8"?>
<!-- Generator: Adobe Illustrator 25.0.1, SVG Export Plug-In . SVG Version: 6.00 Build 0)  -->
<svg version="1.1" id="Слой_1" xmlns="http://www.w3.org/2000/svg" xmlns:xlink="http://www.w3.org/1999/xlink" x="0px" y="0px"
	 viewBox="0 0 161.1 84.5" style="enable-background:new 0 0 161.1 84.5;" xml:space="preserve">
<style type="text/css">
	.st0{fill:#C1A080;}
	.st1{fill:#FFFFFF;}
</style>
<g>
	<g>
		<path class="st0" d="M161.1,72.2H0V0h161.1V72.2z M2,70.2h157.1V2H2V70.2z"/>
		<path class="st0" d="M96.3,45.3c0,5,0,9.8,0,14.6c-0.3,0-0.5,0-0.9,0c0-4,0-7.9,0-12c-0.6,0.4-0.9,0.9-1.2,1.3
			c-0.4,0.4-0.8,0.9-1.1,1.4c-0.4,0.5-0.8,0.9-1.1,1.4c-0.4,0.5-0.8,0.9-1.1,1.4c-0.4,0.5-0.8,0.9-1.1,1.4c-0.4,0.5-0.8,0.9-1.1,1.4
			c-0.4,0.5-0.8,0.9-1.1,1.4c-0.4,0.5-0.8,0.9-1.1,1.4c-0.4,0.4-0.8,0.9-1.2,1.3c0-16.5,0-33,0-49.6c-0.3,0.1-0.5,0.2-0.7,0.3
			c-3.4,1.6-6.8,3.2-10.2,4.8C58,23.3,41.9,30.9,25.8,38.5c-2.2,1.1-4.5,2.1-6.7,3.2c-0.4,0.2-0.5,0.4-0.5,0.8c0,1.2,0,2.4,0,3.6
			c0,0.2,0,0.3,0.1,0.5c0.3,0,0.6,0,0.9,0c1.1,0,2.2,0.2,3.2,0.6c1.7,0.7,2.7,1.9,3.1,3.7c0.3,1.3,0.2,2.5-0.3,3.7
			c-0.7,1.7-2.1,2.7-3.9,3.1c-0.7,0.2-1.5,0.2-2.2,0.3c-0.2,0-0.4,0-0.7,0c0,0.7,0,1.3,0,2c-0.3,0-0.6,0-0.9,0c0-0.7,0-1.3,0-2
			c-0.3,0-0.5,0-0.8,0c-1.1,0-2.1-0.1-3.1-0.5c-1.8-0.7-2.9-1.9-3.3-3.8c-0.3-1.2-0.2-2.4,0.3-3.6c0.6-1.6,1.9-2.6,3.5-3.1
			c0.8-0.2,1.7-0.4,2.6-0.4c0.2,0,0.5,0,0.7,0c0.2-0.6,0.1-1.2,0.1-1.8c0-0.6,0-1.2,0-1.8c0-0.6,0-1.1,0-1.8
			c22.6-10.7,45.2-21.3,67.8-32c1.7,0.9,3.5,1.8,5.2,2.7c11.3,6,22.6,11.9,33.9,17.9c0,0,0,0,0.1,0c1.2,0.6,1,0.2,1,1.6
			c0,6.7,0,13.4,0,20.1c0,0.2,0,0.3,0,0.6c0.2-0.2,0.4-0.3,0.5-0.4c1.9-1.9,3.9-3.8,5.8-5.8c0.5-0.5,1-0.7,1.7-0.5
			c-0.5,0.6-1.1,1.1-1.7,1.7c-0.6,0.6-1.2,1.2-1.7,1.7c-0.6,0.6-1.1,1.1-1.7,1.7c-0.6,0.6-1.2,1.2-1.8,1.8c2.4,2.5,4.9,5,7.4,7.5
			c-0.7,0.2-1.1,0.2-1.6-0.3c-2-2-4-4-6-6.1c-0.1-0.1-0.3-0.3-0.4-0.4c-0.5,0.1-0.5,0.5-0.5,0.8c0,1.8,0,3.6,0,5.3
			c0,0.2,0,0.4,0,0.7c-0.3,0-0.6,0-0.9,0c0-0.3,0-0.7,0-1c0-8.2,0-16.3,0-24.5c0-1,0-2,0-3c0-0.4-0.1-0.5-0.4-0.7
			C112,24.3,99.7,17.8,87.5,11.4c-0.5-0.2-0.9-0.5-1.5-0.8c0,0.4-0.1,0.7-0.1,1c0,5.2,0,10.3,0,15.5c0,9.7,0,19.3,0,29
			c0,0.5,0,1,0.1,1.5c1.8-2,3.5-4.1,5.2-6.1C92.9,49.5,94.6,47.5,96.3,45.3z M17.6,47.4c-1.2,0-2.3,0-3.3,0.4
			c-1.3,0.5-2.2,1.4-2.7,2.7c-0.3,0.7-0.4,1.5-0.3,2.3c0.2,1.9,1.2,3.3,3.1,3.9c0.9,0.3,1.7,0.4,2.7,0.4c0.2,0,0.3,0,0.5-0.1
			C17.6,53.8,17.6,50.7,17.6,47.4z M18.6,57.1c1.2,0.1,2.3,0,3.4-0.4c1.4-0.5,2.2-1.5,2.7-2.8c0.3-0.8,0.3-1.7,0.2-2.5
			c-0.3-1.6-1.2-2.9-2.9-3.4c-0.8-0.3-1.7-0.4-2.5-0.4c-0.3,0-0.5,0-0.8,0C18.6,50.7,18.6,53.8,18.6,57.1z M52,45.4
			c0.3,0,0.5,0,0.8,0c0,0.2,0,0.4,0,0.7c0,1.6,0,3.2,0,4.8c0,0.3,0,0.6,0,0.9c0.7,0,1.5,0,2.2,0c0.2-0.6,0.3-1.2,0.5-1.8
			c1-2.8,3.7-4.7,6.7-4.8c4.2-0.2,7.8,3.3,7.6,7.9c-0.2,3.3-2.5,6.1-5.4,6.8c-5.3,1.3-8.9-2.6-9.2-6.4c0-0.3-0.1-0.5-0.1-0.9
			c-0.4,0-0.7,0-1,0c-0.3,0-0.7,0-1.1,0c0,0.3-0.1,0.6-0.1,0.8c0,1.9,0,3.8,0,5.7c0,0.2,0,0.4,0,0.7c-0.3,0-0.6,0-0.8,0
			C51.9,59.5,51.9,46.5,52,45.4z M56,52.7c0.1,0.7,0.2,1.5,0.4,2.2c1.6,5,7.1,5.6,10,3.1c2.2-1.8,2.8-4.2,2.2-7
			c-0.6-2.5-2.2-4.3-4.7-4.8c-2.6-0.6-4.8,0.2-6.5,2.4C56.5,49.8,56.1,51.2,56,52.7z M143.3,45.3c3.9-0.1,7.5,3,7.5,7.5
			c0,4.1-3.3,7.5-7.7,7.4c-4.1-0.1-7.3-3.3-7.3-7.5C135.8,48.6,139.2,45.2,143.3,45.3z M143.3,46.2c-3.7-0.1-6.5,2.8-6.6,6.5
			c0,3.8,2.8,6.7,6.5,6.7c3.7,0,6.6-2.9,6.6-6.6C149.9,49.1,147,46.2,143.3,46.2z M101.3,45.5c-0.1,0.7-0.1,14.1,0,14.5
			c0.3,0,0.5,0,0.8,0c0-2.5,0-5,0-7.4c0.7-0.1,8.3-0.1,8.9,0c0,2.4,0,4.9,0,7.4c0.3,0,0.6,0,0.9,0c0-4.9,0-9.7,0-14.5
			c-0.3,0-0.6,0-0.9,0c0,0.7,0,1.4,0,2c0,0.7,0,1.4,0,2.1c0,0.7,0,1.3,0,2c-1,0.1-8.4,0.1-8.9-0.1c0-2,0-4,0-6
			C101.8,45.5,101.6,45.5,101.3,45.5z M36.8,55.2c-2.1,0-4.1,0-6.2,0c-0.6,1.6-1.3,3.2-1.9,4.7c-0.3,0-0.6,0-0.9,0
			c0-0.5,5.3-13.6,6-14.8c0.3,0.3,5.7,13.6,6,14.7c-0.1,0-0.3,0.1-0.4,0.1c-0.5,0-0.5,0-0.7-0.5c-0.5-1.2-1-2.5-1.5-3.7
			C37,55.6,36.9,55.4,36.8,55.2z M36.5,54.3c-0.9-2.3-1.8-4.5-2.7-6.7c0,0-0.1,0-0.1,0c-0.9,2.2-1.8,4.5-2.7,6.8
			C32.8,54.3,34.6,54.3,36.5,54.3z M76.9,53.4c1.2,2.3,2.4,4.4,3.5,6.5c0.3,0,0.6,0,1,0c-0.1-0.3-0.2-0.5-0.3-0.7
			c-1.1-2.1-2.2-4.1-3.3-6.2c-0.2-0.4-0.2-0.7,0-1.1c1.1-2,2.1-4,3.2-6c0.1-0.2,0.2-0.4,0.2-0.5c-0.9-0.2-0.9-0.2-1.3,0.6
			c-0.9,1.6-1.7,3.2-2.6,4.9c-0.1,0.2-0.2,0.4-0.4,0.7c-0.2-0.3-0.3-0.5-0.4-0.7c-0.9-1.7-1.8-3.3-2.6-5c-0.3-0.6-0.5-0.7-1.2-0.4
			c0.1,0.3,0.3,0.5,0.4,0.8c1,1.9,2,3.8,3,5.7c0.2,0.4,0.2,0.8,0,1.2c-1.1,2-2.2,4-3.3,6c-0.1,0.2-0.3,0.5-0.3,0.8
			c0.3,0,0.6,0,0.9,0C74.5,57.8,75.7,55.7,76.9,53.4z M46.6,45.4c-0.7,0-1.4,0-2.1,0c-0.7,0-1.4,0-2.1,0c-0.7,0-1.4-0.1-2.1,0
			c0,0.3,0,0.5,0,0.8c1.2,0,2.5,0,3.8,0c0,4.6,0,9.1,0,13.7c0.3,0,0.6,0,0.9,0c0-0.3,0-0.5,0-0.8c0-4,0-8.1,0-12.1
			c0-0.3,0-0.5,0-0.8c1.3,0,2.5,0,3.7,0c0-0.3,0-0.5,0-0.8C48,45.4,47.3,45.4,46.6,45.4z M117.1,58c0,0-0.1,0-0.1,0
			c0-0.6,0-1.2,0-1.7c0-0.6,0-1.2,0-1.8c-0.2,0-0.3,0-0.4,0c-0.1,0-0.2,0-0.3,0c-0.1,0.9-0.1,5.1,0,5.6c1.2-1.2,2.3-2.5,3.5-3.6
			c0.1,0,0.1,0,0.2,0.1c0,1.1,0,2.3,0,3.4c0.2,0,0.3,0,0.4,0c0.1,0,0.2,0,0.4,0c0-1.8,0-3.6,0-5.6C119.4,55.6,118.3,56.8,117.1,58z"
			/>
	</g>
	<g>
		<rect y="74.2" class="st0" width="161.1" height="10.2"/>
		<path class="st1" d="M4.5,80.4l-0.4,0.9H3.7l1.4-3.4h0.2l1.4,3.4H6.3L6,80.4H4.5z M5.2,78.6l-0.6,1.4h1.2L5.2,78.6z M11.6,78.3
			v3.1h-0.4v-3.4h2.1v0.4H11.6z M18.2,79.4h1.7v0.4h-1.7V81H20v0.4h-2.2v-3.4H20v0.4h-1.8V79.4z M27.1,81.3h-0.4v-1.5h-1.8v1.5h-0.4
			v-3.4h0.4v1.5h1.8v-1.5h0.4V81.3z M33,78.3v3.1h-0.4v-3.1h-1.1v-0.4H34v0.4H33z M40,77.9c0.5,0,0.9,0.2,1.3,0.6L41,78.7
			c-0.3-0.3-0.6-0.4-1-0.4c-0.4,0-0.7,0.1-1,0.4c-0.3,0.3-0.4,0.6-0.4,1c0,0.4,0.1,0.7,0.4,1c0.3,0.3,0.6,0.4,1,0.4
			c0.4,0,0.8-0.1,1-0.4l0.2,0.2c-0.3,0.4-0.8,0.6-1.3,0.6c-0.5,0-0.9-0.2-1.2-0.5c-0.3-0.3-0.5-0.7-0.5-1.2s0.2-0.9,0.5-1.2
			C39.1,78.1,39.5,77.9,40,77.9z M46.9,78.3v3.1h-0.4v-3.1h-1.1v-0.4H48v0.4H46.9z M52.5,77.9h1.2c0.8,0,1.1,0.3,1.1,0.9
			c0,0.4-0.2,0.6-0.5,0.7c0.2,0,0.4,0.1,0.5,0.3c0.1,0.1,0.2,0.3,0.2,0.6c0,0.6-0.4,0.9-1.2,0.9h-1.4V77.9z M52.8,78.3v1.1h0.9
			c0.5,0,0.7-0.2,0.7-0.6c0-0.2-0.1-0.3-0.2-0.4c-0.1-0.1-0.3-0.2-0.6-0.2H52.8z M52.8,79.7V81h1c0.5,0,0.8-0.2,0.8-0.6
			c0-0.2-0.1-0.3-0.2-0.5c-0.1-0.1-0.3-0.2-0.6-0.2H52.8z M59.8,78.4c0.3-0.3,0.7-0.5,1.2-0.5c0.5,0,0.9,0.2,1.2,0.5
			c0.3,0.3,0.5,0.7,0.5,1.2s-0.2,0.9-0.5,1.2c-0.3,0.3-0.7,0.5-1.2,0.5c-0.5,0-0.9-0.2-1.2-0.5c-0.3-0.3-0.5-0.7-0.5-1.2
			S59.5,78.7,59.8,78.4z M62,78.7c-0.3-0.3-0.6-0.4-1-0.4c-0.4,0-0.7,0.1-1,0.4c-0.3,0.3-0.4,0.6-0.4,1c0,0.4,0.1,0.7,0.4,1
			c0.3,0.3,0.6,0.4,1,0.4c0.4,0,0.7-0.1,1-0.4c0.3-0.3,0.4-0.6,0.4-1C62.4,79.2,62.3,78.9,62,78.7z M75.2,81.3h-0.4v-1.5H73v1.5
			h-0.4v-3.4H73v1.5h1.8v-1.5h0.4V81.3z M80.3,79.4H82v0.4h-1.7V81h1.8v0.4H80v-3.4h2.2v0.4h-1.8V79.4z M89.9,82h-0.4v-0.6h-2.9V82
			h-0.4v-1h0.4l1.3-3.1h0.2l1.3,3.1h0.4V82z M88.1,78.6l-1,2.3h1.9L88.1,78.6z M94.4,77.9h1.2c0.8,0,1.1,0.3,1.1,0.9
			c0,0.4-0.2,0.6-0.5,0.7c0.2,0,0.4,0.1,0.5,0.3c0.1,0.1,0.2,0.3,0.2,0.6c0,0.6-0.4,0.9-1.2,0.9h-1.4V77.9z M94.7,78.3v1.1h0.9
			c0.5,0,0.7-0.2,0.7-0.6c0-0.2-0.1-0.3-0.2-0.4c-0.1-0.1-0.3-0.2-0.6-0.2H94.7z M94.7,79.7V81h1c0.5,0,0.8-0.2,0.8-0.6
			c0-0.2-0.1-0.3-0.2-0.5c-0.1-0.1-0.3-0.2-0.6-0.2H94.7z M104,81.3h-0.4v-2.7l-2,2.7h-0.2v-3.4h0.4v2.7l2-2.7h0.2V81.3z
			 M112.7,81.3l-0.7-1.1c-0.1-0.2-0.2-0.3-0.3-0.4c-0.1-0.1-0.2-0.1-0.4-0.1H111v1.6h-0.4v-1.6h-0.4c-0.2,0-0.3,0-0.4,0.1
			s-0.2,0.2-0.3,0.4l-0.7,1.1h-0.4l0.8-1.2c0.1-0.2,0.2-0.3,0.3-0.4c0.1-0.1,0.1-0.1,0.2-0.2c-0.1,0-0.1-0.1-0.2-0.2
			c-0.1-0.1-0.2-0.2-0.3-0.3l-0.7-1.2h0.4l0.7,1c0.1,0.2,0.2,0.3,0.3,0.4c0.1,0.1,0.2,0.1,0.4,0.1h0.3v-1.5h0.4v1.5h0.3
			c0.2,0,0.3,0,0.4-0.1s0.2-0.2,0.3-0.4l0.7-1h0.4l-0.7,1.2c-0.2,0.3-0.3,0.5-0.5,0.5c0.1,0,0.2,0.1,0.2,0.2
			c0.1,0.1,0.2,0.2,0.3,0.4l0.8,1.2H112.7z M120.2,81.3h-0.4v-2.7l-2,2.7h-0.2v-3.4h0.4v2.7l2-2.7h0.2V81.3z M128.2,81.3h-0.4v-2.7
			l-1.3,1.6l-1.3-1.6v2.7h-0.4v-3.4h0.2l1.4,1.8l1.4-1.8h0.2V81.3z M133.3,78.4c0.3-0.3,0.7-0.5,1.2-0.5c0.5,0,0.9,0.2,1.2,0.5
			c0.3,0.3,0.5,0.7,0.5,1.2s-0.2,0.9-0.5,1.2c-0.3,0.3-0.7,0.5-1.2,0.5c-0.5,0-0.9-0.2-1.2-0.5c-0.3-0.3-0.5-0.7-0.5-1.2
			S133,78.7,133.3,78.4z M135.5,78.7c-0.3-0.3-0.6-0.4-1-0.4c-0.4,0-0.7,0.1-1,0.4c-0.3,0.3-0.4,0.6-0.4,1c0,0.4,0.1,0.7,0.4,1
			c0.3,0.3,0.6,0.4,1,0.4c0.4,0,0.7-0.1,1-0.4c0.3-0.3,0.4-0.6,0.4-1C135.9,79.2,135.8,78.9,135.5,78.7z M142.4,77.9
			c0.5,0,0.9,0.2,1.3,0.6l-0.2,0.2c-0.3-0.3-0.6-0.4-1-0.4c-0.4,0-0.7,0.1-1,0.4c-0.3,0.3-0.4,0.6-0.4,1c0,0.4,0.1,0.7,0.4,1
			c0.3,0.3,0.6,0.4,1,0.4c0.4,0,0.8-0.1,1-0.4l0.2,0.2c-0.3,0.4-0.8,0.6-1.3,0.6c-0.5,0-0.9-0.2-1.2-0.5c-0.3-0.3-0.5-0.7-0.5-1.2
			s0.2-0.9,0.5-1.2C141.5,78.1,141.9,77.9,142.4,77.9z M149.4,78.3v3.1H149v-3.1h-1.1v-0.4h2.5v0.4H149.4z M157.4,81.3h-0.4v-2.7
			l-2,2.7h-0.2v-3.4h0.4v2.7l2-2.7h0.2V81.3z"/>
	</g>
</g>
</svg>
